<?xml version="1.0" encoding="UTF-8"?><svg id="Layer_2" xmlns="http://www.w3.org/2000/svg" viewBox="0 0 500 500"><defs><style>.cls-1{fill:#3870a4;}.cls-1,.cls-2{stroke-width:0px;}.cls-2{fill:#fff;}</style></defs><g id="Layer_1-2"><rect class="cls-2" width="500" height="500" rx="99.71" ry="99.71"/><path class="cls-1" d="m250,341.5c-81,0-200-23.87-200-133.5,0,109.63,89.54,198.5,200,198.5s200-88.87,200-198.5c0,109.63-115,133.5-200,133.5Z"/><rect class="cls-1" x="146.5" y="206.41" width="15" height="37.92" rx="7.5" ry="7.5"/><rect class="cls-1" x="338.5" y="205.33" width="15" height="40.08" rx="7.5" ry="7.5"/><rect class="cls-1" x="184.9" y="178.51" width="15" height="93.72" rx="7.5" ry="7.5"/><rect class="cls-1" x="223.3" y="147.87" width="15" height="155" rx="7.5" ry="7.5"/><rect class="cls-1" x="261.7" y="189.91" width="15" height="70.92" rx="7.5" ry="7.5"/><rect class="cls-1" x="300.1" y="173.37" width="15" height="104" rx="7.5" ry="7.5"/></g></svg>